<?xml version="1.0" encoding="utf-8"?>
<!-- Generator: Adobe Illustrator 16.0.2, SVG Export Plug-In . SVG Version: 6.00 Build 0)  -->
<!DOCTYPE svg PUBLIC "-//W3C//DTD SVG 1.1//EN" "http://www.w3.org/Graphics/SVG/1.1/DTD/svg11.dtd">
<svg version="1.1" id="Layer_1" xmlns="http://www.w3.org/2000/svg" xmlns:xlink="http://www.w3.org/1999/xlink" x="0px" y="0px"
	 width="612px" height="792px" viewBox="0 0 612 792" enable-background="new 0 0 612 792" xml:space="preserve">
<path fill-rule="evenodd" clip-rule="evenodd" fill="#090B0C" d="M598.947,304.588c1.87,55.37-14.563,104.056-46.705,147.528
	c-25.363,34.303-58.636,58.896-97.56,75.694c-57.529,24.827-117.428,33.223-179.365,22.499
	c-54.33-9.406-101.111-33.608-138.525-74.657c-22.455-24.637-38.572-53.285-51.821-83.674
	c-8.774-20.126-16.499-40.734-27.861-59.664c-10.414-17.348-23.527-31.744-42.063-40.761c-7.516-3.655-8.025-14.63-0.713-18.288
	c28.105-14.063,47.406-37.189,65.172-62.031c14.525-20.312,28.321-41.125,42.935-61.385c36.044-49.975,85.705-74.197,146.07-78.933
	c27.294-2.141,54.244-0.811,80.688,6.959c36.288,10.661,63.894,32.605,84.526,64.005c12.958,19.72,22.706,41.038,32.354,62.439
	c7.88,17.481,16.325,34.635,28.379,49.742c20.537,25.738,48.216,33.714,79.461,22.814c3.3-1.151,6.485-2.672,9.836-3.626
	c8.38-2.386,14.818,2.157,15.14,10.824C599.158,291.231,598.947,298.405,598.947,304.588z M42.947,282.3
	c15.622,12.082,26.606,27.21,35.802,43.775c10.604,19.104,18.528,39.458,27.661,59.248c11.82,25.614,24.81,50.594,43.606,71.9
	c42.229,47.868,96.595,70.588,159.241,74.947c42.139,2.933,82.988-4.047,122.478-18.917
	c59.164-22.28,103.288-60.565,128.587-119.537c12.273-28.608,16.862-58.3,16.779-89.092c-0.013-4.772-0.878-5.695-5.695-4.554
	c-39.686,9.407-71.719-2.608-96.451-34.892c-11.124-14.521-19.324-30.666-26.936-47.154c-10.182-22.056-19.956-44.289-33.411-64.68
	c-20.903-31.68-49.707-51.332-87.108-58.193c-26.73-4.903-53.317-3.313-79.976,1.148c-41.743,6.988-76,26.078-101.95,59.99
	c-15.097,19.728-28.564,40.535-42.607,60.968C86.216,241.63,68.458,265.084,42.947,282.3z"/>
<path fill-rule="evenodd" clip-rule="evenodd" fill="#090B0C" d="M373.826,405.764c-16.372-4.407-29.616-12.374-41.039-23.455
	c-6.732-6.531-12.533-13.805-17.366-21.828c-3.829-6.356-2.459-12.571,3.32-15.919c5.829-3.376,11.849-1.669,15.769,4.469
	c0.627,0.982,1.329,1.923,1.881,2.945c1.244,2.303,2.352,2.395,4.514,0.645c8.563-6.935,17.326-13.639,28.944-14.545
	c1.463-0.115,1.771-0.594,1.6-2.188c-2.648-24.636,4.06-36.633,26.455-47.604c8.114-3.975,16.669-6.678,25.442-8.703
	c5.02-1.159,6.971,0.369,7.685,5.587c1.585,11.585,2.645,23.154,0.109,34.766c-4.046,18.527-18.086,30.807-36.997,32.277
	c-1.261,0.099-3.461-0.813-3.047,1.851c1.627,10.478-3.628,18.606-8.953,26.73c-0.273,0.418-0.538,0.848-0.86,1.227
	c-1.887,2.219-0.92,3.144,1.527,3.401c4.312,0.454,8.606,0.755,12.948,0.136c6.467-0.923,11.268,1.508,13.593,6.655
	c2.358,5.222,0.673,9.819-4.283,14.318c-8.994,8.161-17.443,16.909-27.091,24.362c-17.142,13.242-35.798,21.822-58.12,19.449
	c-2.097-0.224-3.415,0.738-4.874,1.923c-18.509,15.02-38.193,28.382-58.223,41.26c-2.833,1.821-5.584,3.164-8.694,0.786
	c-3.286-2.513-2.022-5.498-0.913-8.568c6.633-18.347,14.393-36.183,24.234-53.051c1.406-2.411,1.076-3.655-1.014-5.309
	c-7.845-6.204-15.085-13.094-22.073-20.237c-5.323-5.44-5.472-11.459-0.567-16.246c4.916-4.798,10.954-4.678,16.305,0.588
	c7.953,7.827,15.789,15.771,24.673,22.577c25.027,19.176,48.788,19.389,74.103,0.58C366.368,412.002,369.72,409.087,373.826,405.764
	z M422.569,301.917c-0.13-1.744-0.401-5.062-0.614-8.382c-0.111-1.73-0.539-3.041-2.684-2.337
	c-13.214,4.338-26.151,9.226-35.151,20.654c-4.648,5.902-5.626,12.646-3.442,19.827c2.52,8.286,8.811,12.005,17.199,10.194
	c8.621-1.859,15.098-6.633,19.499-14.276C421.688,320.112,422.649,311.921,422.569,301.917z M368.673,349.469
	c-8.435,0.845-15.402,6.833-22.313,12.882c-1.338,1.171-0.091,2.064,0.693,2.864c5.628,5.747,11.885,10.657,19.011,14.451
	c1.575,0.838,2.601,0.945,3.772-0.66c3.737-5.117,7.516-10.213,9.604-16.273C382.178,354.792,378.329,349.464,368.673,349.469z
	 M303.502,446.925c-6.185-2.544-11.982-4.715-17.024-8.232c-3.16-2.205-4.763-2.073-6.64,1.553
	c-5.271,10.187-10.576,20.346-14.91,30.975c-0.436,1.067-1.719,2.162-0.436,3.781C277.729,466.181,290.85,457.247,303.502,446.925z"
	/>
<path fill-rule="evenodd" clip-rule="evenodd" fill="#090B0C" d="M219.508,203.431c10.485-0.004,17.844,7.649,17.84,18.553
	c-0.004,10.529-7.358,18.143-17.625,18.249c-10.711,0.109-18.226-7.678-18.139-18.797
	C201.666,210.997,209.194,203.435,219.508,203.431z"/>
</svg>
